<svg xmlns="http://www.w3.org/2000/svg" width="940" height="720" font-family="Segoe UI,Helvetica,Arial,sans-serif" viewBox="0 0 940 720">
  <defs>
    <marker id="arrow" viewBox="0 0 10 10" refX="9" refY="5" markerWidth="7" markerHeight="7" orient="auto-start-reverse">
      <path d="M0 0 L10 5 L0 10 z" fill="#ff7a3d"/>
    </marker>
    <marker id="arrowg" viewBox="0 0 10 10" refX="9" refY="5" markerWidth="7" markerHeight="7" orient="auto-start-reverse">
      <path d="M0 0 L10 5 L0 10 z" fill="#b8a79d"/>
    </marker>
    <filter id="shadow" x="-20%" y="-20%" width="140%" height="140%">
      <feDropShadow dx="0" dy="1.5" stdDeviation="2.5" flood-color="#1c1815" flood-opacity="0.12"/>
    </filter>
    <style>
      .band   { fill:#faf7f5; stroke:#e7ddd6; stroke-width:1; }
      .blabel { fill:#a8978c; font-size:11px; font-weight:700; letter-spacing:1.2px; }
      .svc    { fill:#ffffff; stroke:#ff7a3d; stroke-width:1.5; }
      .ds     { fill:#fff4ee; stroke:#ff7a3d; stroke-width:1.5; }
      .edge   { fill:#1c1815; }
      .name   { fill:#1c1815; font-size:13px; font-weight:700; }
      .sub    { fill:#6b625c; font-size:10.5px; }
      .flow   { stroke:#ff7a3d; stroke-width:1.6; fill:none; }
      .metric { stroke:#b8a79d; stroke-width:1.3; stroke-dasharray:4 3; fill:none; }
      .elabel { fill:#8a7c72; font-size:9.5px; font-style:italic; }
    </style>
  </defs>

  <rect width="940" height="720" fill="#ffffff"/>
  <text x="470" y="34" text-anchor="middle" font-size="20" font-weight="700" class="edge">Spoty - High-Level Architecture</text>

  <!-- ================= CLIENT ================= -->
  <rect class="band" x="40" y="54" width="860" height="62" rx="8"/>
  <text class="blabel" x="56" y="72">CLIENT</text>
  <g filter="url(#shadow)">
    <rect class="svc" x="370" y="70" width="200" height="38" rx="6"/>
  </g>
  <text class="name" x="470" y="88" text-anchor="middle">React 19 Web Player</text>
  <text class="sub"  x="470" y="102" text-anchor="middle">SPA · audio element · live polling</text>

  <!-- ================= EDGE ================= -->
  <rect class="band" x="40" y="138" width="860" height="62" rx="8"/>
  <text class="blabel" x="56" y="156">EDGE</text>
  <g filter="url(#shadow)">
    <rect class="svc" x="350" y="154" width="240" height="38" rx="6"/>
  </g>
  <text class="name" x="470" y="172" text-anchor="middle">NGINX API Gateway / LB</text>
  <text class="sub"  x="470" y="186" text-anchor="middle">TLS termination · round-robin routing</text>

  <!-- ================= APPLICATION TIER ================= -->
  <rect class="band" x="40" y="222" width="860" height="96" rx="8"/>
  <text class="blabel" x="56" y="240">APPLICATION TIER - Node.js 24 + Express 5 · stateless · autoscaled</text>
  <g filter="url(#shadow)">
    <rect class="svc" x="56"  y="252" width="150" height="54" rx="6"/>
    <rect class="svc" x="226" y="252" width="150" height="54" rx="6"/>
    <rect class="svc" x="396" y="252" width="150" height="54" rx="6"/>
    <rect class="svc" x="566" y="252" width="150" height="54" rx="6"/>
    <rect class="svc" x="736" y="252" width="150" height="54" rx="6"/>
  </g>
  <text class="name" x="131" y="275" text-anchor="middle">auth</text>
  <text class="sub"  x="131" y="291" text-anchor="middle">JWT · bcrypt · RBAC</text>
  <text class="name" x="301" y="275" text-anchor="middle">catalog</text>
  <text class="sub"  x="301" y="291" text-anchor="middle">songs · search · playlists</text>
  <text class="name" x="471" y="275" text-anchor="middle">playback</text>
  <text class="sub"  x="471" y="291" text-anchor="middle">gating · presign · emit</text>
  <text class="name" x="641" y="275" text-anchor="middle">recommendation</text>
  <text class="sub"  x="641" y="291" text-anchor="middle">trending · for-you</text>
  <text class="name" x="811" y="275" text-anchor="middle">ingestion</text>
  <text class="sub"  x="811" y="291" text-anchor="middle">event simulator</text>

  <!-- ================= REAL-TIME PROCESSING ================= -->
  <rect class="band" x="40" y="356" width="860" height="84" rx="8"/>
  <text class="blabel" x="56" y="374">REAL-TIME PROCESSING</text>
  <g filter="url(#shadow)">
    <rect class="ds"  x="150" y="386" width="220" height="44" rx="6"/>
    <rect class="svc" x="540" y="386" width="250" height="44" rx="6"/>
  </g>
  <text class="name" x="260" y="406" text-anchor="middle">Apache Kafka 4.2</text>
  <text class="sub"  x="260" y="421" text-anchor="middle">play-events topic (KRaft)</text>
  <text class="name" x="665" y="406" text-anchor="middle">PySpark Structured Streaming</text>
  <text class="sub"  x="665" y="421" text-anchor="middle">anonymize · window · aggregate</text>

  <!-- ================= STORAGE TIER ================= -->
  <rect class="band" x="40" y="478" width="860" height="84" rx="8"/>
  <text class="blabel" x="56" y="496">STORAGE TIER</text>
  <g filter="url(#shadow)">
    <rect class="ds" x="90"  y="508" width="220" height="44" rx="6"/>
    <rect class="ds" x="360" y="508" width="220" height="44" rx="6"/>
    <rect class="ds" x="630" y="508" width="220" height="44" rx="6"/>
  </g>
  <text class="name" x="200" y="528" text-anchor="middle">PostgreSQL 18</text>
  <text class="sub"  x="200" y="543" text-anchor="middle">users · catalog · rollups</text>
  <text class="name" x="470" y="528" text-anchor="middle">Redis 8</text>
  <text class="sub"  x="470" y="543" text-anchor="middle">trending leaderboards</text>
  <text class="name" x="740" y="528" text-anchor="middle">MinIO / Blob</text>
  <text class="sub"  x="740" y="543" text-anchor="middle">audio objects</text>

  <!-- ================= OBSERVABILITY ================= -->
  <rect class="band" x="40" y="600" width="860" height="74" rx="8"/>
  <text class="blabel" x="56" y="618">OBSERVABILITY</text>
  <g filter="url(#shadow)">
    <rect class="svc" x="320" y="628" width="140" height="36" rx="6"/>
    <rect class="svc" x="500" y="628" width="140" height="36" rx="6"/>
  </g>
  <text class="name" x="390" y="650" text-anchor="middle">Prometheus</text>
  <text class="name" x="570" y="650" text-anchor="middle">Grafana</text>

  <!-- ================= FLOWS ================= -->
  <!-- client -> edge -> services -->
  <path class="flow" d="M470 108 L470 152" marker-end="url(#arrow)"/>
  <text class="elabel" x="478" y="128">HTTPS</text>
  <path class="flow" d="M470 192 L470 250" marker-end="url(#arrow)"/>
  <text class="elabel" x="478" y="222">/api/*</text>

  <!-- playback -> kafka -->
  <path class="flow" d="M471 306 C 420 345, 330 360, 290 384" marker-end="url(#arrow)"/>
  <text class="elabel" x="300" y="350">play/skip/like</text>
  <!-- ingestion -> kafka -->
  <path class="flow" d="M811 306 C 700 345, 420 360, 350 384" marker-end="url(#arrow)"/>
  <text class="elabel" x="560" y="352">synthetic events</text>

  <!-- kafka -> spark -->
  <path class="flow" d="M370 408 L536 408" marker-end="url(#arrow)"/>
  <text class="elabel" x="430" y="400">consume</text>

  <!-- spark -> redis -->
  <path class="flow" d="M620 430 C 560 470, 500 480, 475 504" marker-end="url(#arrow)"/>
  <text class="elabel" x="540" y="475">leaderboards</text>
  <!-- spark -> postgres -->
  <path class="flow" d="M620 430 C 420 472, 260 480, 215 504" marker-end="url(#arrow)"/>
  <text class="elabel" x="330" y="475">rollups</text>

  <!-- playback -> minio (down right side) -->
  <path class="flow" d="M546 290 C 700 320, 780 430, 750 504" marker-end="url(#arrow)"/>
  <text class="elabel" x="730" y="430">presign</text>

  <!-- recommendation -> redis/postgres (read) -->
  <path class="flow" d="M641 306 C 600 400, 520 470, 480 504" marker-end="url(#arrow)"/>

  <!-- services -> observability (metrics, dashed) -->
  <path class="metric" d="M131 306 C 200 470, 320 600, 380 626" marker-end="url(#arrowg)"/>
  <text class="elabel" x="150" y="470">/metrics</text>
  <!-- prometheus -> grafana -->
  <path class="flow" d="M460 646 L496 646" marker-end="url(#arrow)"/>
</svg>
