<svg xmlns="http://www.w3.org/2000/svg" width="940" height="700" font-family="Segoe UI,Helvetica,Arial,sans-serif" viewBox="0 0 940 700">
  <defs>
    <marker id="arrow" viewBox="0 0 10 10" refX="9" refY="5" markerWidth="7" markerHeight="7" orient="auto-start-reverse">
      <path d="M0 0 L10 5 L0 10 z" fill="#ff7a3d"/>
    </marker>
    <marker id="arrowg" viewBox="0 0 10 10" refX="9" refY="5" markerWidth="7" markerHeight="7" orient="auto-start-reverse">
      <path d="M0 0 L10 5 L0 10 z" fill="#b8a79d"/>
    </marker>
    <filter id="shadow" x="-30%" y="-30%" width="160%" height="160%">
      <feDropShadow dx="0" dy="1.5" stdDeviation="2.5" flood-color="#1c1815" flood-opacity="0.12"/>
    </filter>
    <style>
      .grp    { fill:#faf7f5; stroke:#e7ddd6; stroke-width:1.2; }
      .glabel { fill:#a8978c; font-size:11px; font-weight:700; letter-spacing:1px; }
      .az     { fill:#ffffff; stroke:#0a7bd1; stroke-width:1.5; }
      .svc    { fill:#ffffff; stroke:#ff7a3d; stroke-width:1.5; }
      .ds     { fill:#fff4ee; stroke:#ff7a3d; stroke-width:1.5; }
      .name   { fill:#1c1815; font-size:12.5px; font-weight:700; }
      .sub    { fill:#6b625c; font-size:10px; }
      .flow   { stroke:#ff7a3d; stroke-width:1.6; fill:none; }
      .ctrl   { stroke:#b8a79d; stroke-width:1.3; stroke-dasharray:4 3; fill:none; }
      .elabel { fill:#8a7c72; font-size:9.5px; font-style:italic; }
    </style>
  </defs>

  <rect width="940" height="700" fill="#ffffff"/>
  <text x="470" y="34" text-anchor="middle" font-size="20" font-weight="700" fill="#1c1815">Spoty - Azure Deployment Topology</text>

  <!-- users -->
  <g filter="url(#shadow)"><rect class="svc" x="50" y="70" width="120" height="40" rx="20"/></g>
  <text class="name" x="110" y="95" text-anchor="middle">Users</text>

  <!-- App Gateway -->
  <g filter="url(#shadow)"><rect class="az" x="370" y="64" width="200" height="52" rx="8"/></g>
  <text class="name" x="470" y="86" text-anchor="middle">Azure Application Gateway</text>
  <text class="sub"  x="470" y="102" text-anchor="middle">WAF + TLS</text>

  <!-- Static Web Apps -->
  <g filter="url(#shadow)"><rect class="az" x="700" y="64" width="200" height="52" rx="8"/></g>
  <text class="name" x="800" y="86" text-anchor="middle">Azure Static Web Apps</text>
  <text class="sub"  x="800" y="102" text-anchor="middle">React frontend</text>

  <!-- Entra ID -->
  <g filter="url(#shadow)"><rect class="az" x="370" y="146" width="200" height="44" rx="8"/></g>
  <text class="name" x="470" y="168" text-anchor="middle">Microsoft Entra ID</text>
  <text class="sub"  x="470" y="182" text-anchor="middle">OAuth2 / OIDC</text>

  <!-- AKS group -->
  <rect class="grp" x="50" y="222" width="540" height="270" rx="10"/>
  <text class="glabel" x="68" y="244">AZURE KUBERNETES SERVICE (AKS)</text>

  <g filter="url(#shadow)"><rect class="az" x="200" y="256" width="240" height="40" rx="8"/></g>
  <text class="name" x="320" y="281" text-anchor="middle">Ingress Controller</text>

  <!-- autoscaled pods sub-group -->
  <rect class="grp" x="74" y="318" width="492" height="92" rx="8" fill="#fff"/>
  <text class="glabel" x="90" y="337">AUTOSCALED PODS · HPA</text>
  <g filter="url(#shadow)">
    <rect class="svc" x="90"  y="346" width="108" height="50" rx="6"/>
    <rect class="svc" x="212" y="346" width="108" height="50" rx="6"/>
    <rect class="svc" x="334" y="346" width="108" height="50" rx="6"/>
    <rect class="svc" x="456" y="346" width="100" height="50" rx="6"/>
  </g>
  <text class="name" x="144" y="376" text-anchor="middle">auth</text>
  <text class="name" x="266" y="376" text-anchor="middle">catalog</text>
  <text class="name" x="388" y="376" text-anchor="middle">playback</text>
  <text class="name" x="506" y="370" text-anchor="middle">reco</text>
  <text class="sub"  x="506" y="384" text-anchor="middle">+ingest</text>

  <!-- spark pods -->
  <g filter="url(#shadow)"><rect class="svc" x="160" y="430" width="320" height="44" rx="6"/></g>
  <text class="name" x="320" y="452" text-anchor="middle">Spark / stream-processor pods</text>
  <text class="sub"  x="320" y="466" text-anchor="middle">Structured Streaming</text>

  <!-- managed data services group -->
  <rect class="grp" x="640" y="222" width="260" height="338" rx="10"/>
  <text class="glabel" x="658" y="244">AZURE MANAGED DATA SERVICES</text>

  <g filter="url(#shadow)">
    <rect class="ds" x="664" y="258" width="212" height="50" rx="8"/>
    <rect class="ds" x="664" y="320" width="212" height="50" rx="8"/>
    <rect class="ds" x="664" y="382" width="212" height="50" rx="8"/>
    <rect class="ds" x="664" y="444" width="212" height="50" rx="8"/>
  </g>
  <text class="name" x="770" y="280" text-anchor="middle">Azure Event Hubs</text>
  <text class="sub"  x="770" y="296" text-anchor="middle">Kafka-compatible</text>
  <text class="name" x="770" y="342" text-anchor="middle">Azure Cache for Redis</text>
  <text class="sub"  x="770" y="358" text-anchor="middle">trending leaderboards</text>
  <text class="name" x="770" y="404" text-anchor="middle">Azure DB for PostgreSQL</text>
  <text class="sub"  x="770" y="420" text-anchor="middle">Flexible Server</text>
  <text class="name" x="770" y="466" text-anchor="middle">Azure Blob Storage</text>
  <text class="sub"  x="770" y="482" text-anchor="middle">audio objects</text>

  <!-- platform services row -->
  <g filter="url(#shadow)">
    <rect class="az" x="50"  y="600" width="260" height="48" rx="8"/>
    <rect class="az" x="340" y="600" width="260" height="48" rx="8"/>
    <rect class="az" x="640" y="600" width="260" height="48" rx="8"/>
  </g>
  <text class="name" x="180" y="622" text-anchor="middle">Azure Key Vault</text>
  <text class="sub"  x="180" y="637" text-anchor="middle">secrets · certs</text>
  <text class="name" x="470" y="622" text-anchor="middle">Azure Monitor</text>
  <text class="sub"  x="470" y="637" text-anchor="middle">+ Managed Grafana</text>
  <text class="name" x="770" y="622" text-anchor="middle">Azure Container Registry</text>
  <text class="sub"  x="770" y="637" text-anchor="middle">service images</text>

  <!-- ===== flows ===== -->
  <path class="flow" d="M170 90 L366 90" marker-end="url(#arrow)"/>
  <text class="elabel" x="230" y="84">HTTPS</text>
  <path class="flow" d="M800 116 C 800 130, 620 110, 572 96" marker-end="url(#arrow)"/>
  <text class="elabel" x="640" y="118">static assets</text>
  <path class="ctrl" d="M470 146 L470 118" marker-end="url(#arrowg)"/>
  <text class="elabel" x="478" y="136">authn</text>

  <path class="flow" d="M470 190 L470 252" marker-end="url(#arrow)"/>
  <text class="elabel" x="478" y="222">→ ingress</text>
  <path class="flow" d="M320 296 L320 314" marker-end="url(#arrow)"/>

  <!-- pods -> event hubs -->
  <path class="flow" d="M442 360 C 560 350, 600 300, 660 290" marker-end="url(#arrow)"/>
  <text class="elabel" x="540" y="320">produce</text>
  <!-- event hubs -> spark -->
  <path class="flow" d="M664 300 C 560 360, 520 420, 482 444" marker-end="url(#arrow)"/>
  <text class="elabel" x="556" y="400">consume</text>
  <!-- spark -> redis -->
  <path class="flow" d="M480 444 C 580 410, 600 360, 662 345" marker-end="url(#arrow)"/>
  <!-- spark -> postgres -->
  <path class="flow" d="M480 458 C 580 450, 600 410, 662 405" marker-end="url(#arrow)"/>
  <!-- pods -> redis/pg (read) -->
  <path class="flow" d="M556 372 C 610 372, 620 360, 662 350" marker-end="url(#arrow)"/>
  <!-- playback -> blob -->
  <path class="flow" d="M442 372 C 590 400, 600 460, 662 468" marker-end="url(#arrow)"/>
  <text class="elabel" x="560" y="450">presign</text>

  <!-- key vault -> pods -->
  <path class="ctrl" d="M180 600 L300 412" marker-end="url(#arrowg)"/>
  <text class="elabel" x="195" y="510">secrets</text>
  <!-- pods -> monitor -->
  <path class="ctrl" d="M360 410 C 420 500, 450 560, 470 596" marker-end="url(#arrowg)"/>
  <text class="elabel" x="430" y="520">metrics/logs</text>
  <!-- ACR -> pods (image pull) -->
  <path class="ctrl" d="M770 600 C 770 540, 560 440, 442 392" marker-end="url(#arrowg)"/>
  <text class="elabel" x="650" y="540">image pull</text>
</svg>
