<svg xmlns="http://www.w3.org/2000/svg" width="940" height="700" font-family="Segoe UI,Helvetica,Arial,sans-serif" viewBox="0 0 940 700">
  <defs>
    <filter id="shadow" x="-20%" y="-20%" width="140%" height="140%">
      <feDropShadow dx="0" dy="1.5" stdDeviation="2.5" flood-color="#1c1815" flood-opacity="0.12"/>
    </filter>
    <style>
      .tbl   { fill:#ffffff; stroke:#ff7a3d; stroke-width:1.5; }
      .hdr   { fill:#ff7a3d; }
      .htxt  { fill:#ffffff; font-size:13px; font-weight:700; letter-spacing:0.5px; }
      .anh   { fill:#1c1815; }            /* analytics header (pseudonymous) */
      .col   { fill:#2a221d; font-size:11px; }
      .key   { fill:#c5602f; font-size:9.5px; font-weight:700; }
      .note  { fill:#8a7c72; font-size:9.5px; font-style:italic; }
      .rel   { stroke:#b8a79d; stroke-width:1.5; fill:none; }
      .card  { fill:#6b625c; font-size:10px; font-weight:700; }
      .rlbl  { fill:#8a7c72; font-size:9.5px; font-style:italic; }
      .legtxt{ fill:#6b625c; font-size:10.5px; }
    </style>
  </defs>

  <rect width="940" height="700" fill="#ffffff"/>
  <text x="470" y="34" text-anchor="middle" font-size="20" font-weight="700" fill="#1c1815">Spoty - Data Model (Entity-Relationship)</text>

  <!-- ===================== USERS ===================== -->
  <g filter="url(#shadow)">
    <rect class="tbl" x="60" y="70" width="200" height="108" rx="6"/>
    <path class="hdr" d="M60 76 a6 6 0 0 1 6 -6 h188 a6 6 0 0 1 6 6 v18 h-200 z"/>
  </g>
  <text class="htxt" x="74" y="89">USERS</text>
  <text class="key" x="74"  y="112">PK</text><text class="col" x="100" y="112">id  bigint</text>
  <text class="key" x="74"  y="130">UK</text><text class="col" x="100" y="130">email  text</text>
  <text class="col" x="100" y="148">password_hash  text</text>
  <text class="col" x="100" y="166">role  free | premium | admin</text>

  <!-- ===================== ARTISTS ===================== -->
  <g filter="url(#shadow)">
    <rect class="tbl" x="60" y="320" width="200" height="90" rx="6"/>
    <path class="hdr" d="M60 326 a6 6 0 0 1 6 -6 h188 a6 6 0 0 1 6 6 v18 h-200 z"/>
  </g>
  <text class="htxt" x="74" y="339">ARTISTS</text>
  <text class="key" x="74"  y="362">PK</text><text class="col" x="100" y="362">id  bigint</text>
  <text class="col" x="100" y="380">name  text</text>
  <text class="col" x="100" y="398">genre  text</text>

  <!-- ===================== SONGS ===================== -->
  <g filter="url(#shadow)">
    <rect class="tbl" x="370" y="300" width="220" height="144" rx="6"/>
    <path class="hdr" d="M370 306 a6 6 0 0 1 6 -6 h208 a6 6 0 0 1 6 6 v18 h-220 z"/>
  </g>
  <text class="htxt" x="384" y="319">SONGS</text>
  <text class="key" x="384" y="342">PK</text><text class="col" x="410" y="342">id  bigint</text>
  <text class="col" x="410" y="360">title  text</text>
  <text class="key" x="384" y="378">FK</text><text class="col" x="410" y="378">artist_id  bigint</text>
  <text class="col" x="410" y="396">genre  text</text>
  <text class="col" x="410" y="414">audio_key  text</text>
  <text class="col" x="410" y="432">premium_only  boolean</text>

  <!-- ===================== PLAYLISTS ===================== -->
  <g filter="url(#shadow)">
    <rect class="tbl" x="60" y="500" width="200" height="90" rx="6"/>
    <path class="hdr" d="M60 506 a6 6 0 0 1 6 -6 h188 a6 6 0 0 1 6 6 v18 h-200 z"/>
  </g>
  <text class="htxt" x="74" y="519">PLAYLISTS</text>
  <text class="key" x="74"  y="542">PK</text><text class="col" x="100" y="542">id  bigint</text>
  <text class="key" x="74"  y="560">FK</text><text class="col" x="100" y="560">user_id  bigint</text>
  <text class="col" x="100" y="578">name  text</text>

  <!-- ===================== PLAYLIST_SONGS ===================== -->
  <g filter="url(#shadow)">
    <rect class="tbl" x="370" y="510" width="220" height="90" rx="6"/>
    <path class="hdr" d="M370 516 a6 6 0 0 1 6 -6 h208 a6 6 0 0 1 6 6 v18 h-220 z"/>
  </g>
  <text class="htxt" x="384" y="529">PLAYLIST_SONGS</text>
  <text class="key" x="384" y="552">FK</text><text class="col" x="410" y="552">playlist_id  bigint</text>
  <text class="key" x="384" y="570">FK</text><text class="col" x="410" y="570">song_id  bigint</text>
  <text class="col" x="410" y="588">position  int</text>

  <!-- ===================== ANALYTICS (pseudonymous) ===================== -->
  <text class="note" x="700" y="64" text-anchor="middle" font-size="11">Analytics rollups - written by PySpark · pseudonymous</text>

  <g filter="url(#shadow)">
    <rect class="tbl" x="690" y="80" width="220" height="92" rx="6"/>
    <path class="anh" d="M690 86 a6 6 0 0 1 6 -6 h208 a6 6 0 0 1 6 6 v18 h-220 z"/>
  </g>
  <text class="htxt" x="704" y="99">SONG_PLAY_COUNTS</text>
  <text class="key" x="704" y="122">PK</text><text class="col" x="730" y="122">song_id  bigint</text>
  <text class="key" x="704" y="140">PK</text><text class="col" x="730" y="140">window_start  timestamptz</text>
  <text class="col" x="730" y="158">play_count  bigint</text>

  <g filter="url(#shadow)">
    <rect class="tbl" x="690" y="200" width="220" height="92" rx="6"/>
    <path class="anh" d="M690 206 a6 6 0 0 1 6 -6 h208 a6 6 0 0 1 6 6 v18 h-220 z"/>
  </g>
  <text class="htxt" x="704" y="219">SONG_UNIQUE_LISTENERS</text>
  <text class="key" x="704" y="242">PK</text><text class="col" x="730" y="242">song_id  bigint</text>
  <text class="key" x="704" y="260">PK</text><text class="col" x="730" y="260">window_start  timestamptz</text>
  <text class="col" x="730" y="278">unique_listeners  bigint</text>

  <g filter="url(#shadow)">
    <rect class="tbl" x="690" y="320" width="220" height="96" rx="6"/>
    <path class="anh" d="M690 326 a6 6 0 0 1 6 -6 h208 a6 6 0 0 1 6 6 v18 h-220 z"/>
  </g>
  <text class="htxt" x="704" y="339">USER_GENRE_AFFINITY</text>
  <text class="key" x="704" y="362">PK</text><text class="col" x="730" y="362">user_hash  text</text>
  <text class="note" x="730" y="378">HMAC - pseudonymous, never raw id</text>
  <text class="key" x="704" y="396">PK</text><text class="col" x="730" y="396">genre  text</text>
  <text class="col" x="730" y="414">play_count  bigint</text>

  <!-- ===================== relationships ===================== -->
  <!-- USERS to PLAYLISTS (owns) -->
  <path class="rel" d="M160 178 L160 500"/>
  <text class="card" x="166" y="196">1</text>
  <text class="card" x="166" y="494">∞</text>
  <text class="rlbl" x="166" y="340" transform="rotate(-90 166 340)" text-anchor="middle">owns</text>

  <!-- ARTISTS to SONGS (performs) -->
  <path class="rel" d="M260 365 L370 372"/>
  <text class="card" x="268" y="360">1</text>
  <text class="card" x="352" y="366">∞</text>
  <text class="rlbl" x="315" y="356" text-anchor="middle">performs</text>

  <!-- PLAYLISTS to PLAYLIST_SONGS (contains) -->
  <path class="rel" d="M260 545 L370 545"/>
  <text class="card" x="268" y="540">1</text>
  <text class="card" x="352" y="540">∞</text>
  <text class="rlbl" x="315" y="536" text-anchor="middle">contains</text>

  <!-- SONGS to PLAYLIST_SONGS (in) -->
  <path class="rel" d="M480 444 L480 510"/>
  <text class="card" x="486" y="462">1</text>
  <text class="card" x="486" y="504">∞</text>
  <text class="rlbl" x="512" y="480">in</text>

  <!-- SONGS to SONG_PLAY_COUNTS / UNIQUE (aggregated by Spark) -->
  <path class="rel" d="M590 340 C 650 280, 660 180, 690 126"/>
  <text class="card" x="598" y="334">1</text>
  <text class="card" x="676" y="138">∞</text>
  <path class="rel" d="M590 360 C 650 320, 660 270, 690 246"/>
  <text class="card" x="676" y="258">∞</text>
  <text class="rlbl" x="650" y="230" text-anchor="middle" transform="rotate(-32 650 230)">aggregated by Spark</text>

  <!-- ===================== legend ===================== -->
  <rect x="60" y="630" width="820" height="44" rx="6" fill="#faf7f5" stroke="#e7ddd6"/>
  <rect x="76" y="644" width="22" height="14" rx="3" class="tbl"/>
  <rect x="76" y="644" width="22" height="6"  class="hdr"/>
  <text class="legtxt" x="106" y="655">Operational tables (raw identifiers)</text>
  <rect x="360" y="644" width="22" height="14" rx="3" class="tbl"/>
  <rect x="360" y="644" width="22" height="6"  class="anh"/>
  <text class="legtxt" x="390" y="655">Analytics rollups - pseudonymous (HMAC user_hash, GDPR/CCPA data-minimization)</text>
</svg>
